HIERARCHY
ROOT Hips
{
  OFFSET 0 0 0
  CHANNELS 6 Xposition Yposition Zposition Zrotation Yrotation Xrotation
  JOINT LeftThigh
  {
    OFFSET 8.409438 0 -5.917753
    CHANNELS 3 Zrotation Yrotation Xrotation
    JOINT LeftLeg
    {
      OFFSET 0 0 -42.358652
      CHANNELS 3 Zrotation Yrotation Xrotation
      JOINT LeftFoot
      {
        OFFSET 0 0 -39.357303
        CHANNELS 3 Zrotation Yrotation Xrotation
      }
    }
  }
  JOINT RightThigh
  {
    OFFSET -8.409438 0 -5.917753
    CHANNELS 3 Zrotation Yrotation Xrotation
    JOINT RightLeg
    {
      OFFSET 0 0 -42.358652
      CHANNELS 3 Zrotation Yrotation Xrotation
      JOINT RightFoot
      {
        OFFSET 0 0 -39.357303
        CHANNELS 3 Zrotation Yrotation Xrotation
      }
    }
  }
  JOINT SpineLow
  {
    OFFSET 0 0 4.719101
    CHANNELS 3 Zrotation Yrotation Xrotation
    JOINT SpineMid
    {
      OFFSET 0 0 12.899191
      CHANNELS 3 Zrotation Yrotation Xrotation
      JOINT Chest
      {
        OFFSET 0 0 12.899191
        CHANNELS 3 Zrotation Yrotation Xrotation
        JOINT LeftShoulder
        {
          OFFSET 7.550562 1.41573 9.438202
          CHANNELS 3 Zrotation Yrotation Xrotation
          JOINT LeftArm
          {
            OFFSET 9.155056 0 4.247191
            CHANNELS 3 Zrotation Yrotation Xrotation
            JOINT LeftForearm
            {
              OFFSET 0 0 25.771955
              CHANNELS 3 Zrotation Yrotation Xrotation
              JOINT LeftHand
              {
                OFFSET 0 0 25.197169
                CHANNELS 3 Zrotation Yrotation Xrotation
              }
            }
          }
        }
        JOINT RightShoulder
        {
          OFFSET -7.550562 1.41573 9.438202
          CHANNELS 3 Zrotation Yrotation Xrotation
          JOINT RightArm
          {
            OFFSET -9.155056 0 4.247191
            CHANNELS 3 Zrotation Yrotation Xrotation
            JOINT RightForearm
            {
              OFFSET 0 0 -25.771955
              CHANNELS 3 Zrotation Yrotation Xrotation
              JOINT RightHand
              {
                OFFSET 0 0 -25.197169
                CHANNELS 3 Zrotation Yrotation Xrotation
              }
            }
          }
        }
        JOINT Neck
        {
          OFFSET 0 0 15.101124
          CHANNELS 3 Zrotation Yrotation Xrotation
          JOINT Head
          {
            OFFSET 0 0 11.325843
            CHANNELS 3 Zrotation Yrotation Xrotation
            End Site
            {
              OFFSET 0 0 14.157303
            }
          }
        }
      }
    }
  }
}
MOTION
Frames: 17
Frame Time: 0.0
0.0  101.685394  0.0  0.786202  8.09253  -100.222719  16.422871  -18.758555  15.221542  -4.055317  3.756089  2.774836  5.828107  0.534518  4.267039  -5.512809  16.591942  8.707133  -5.045651  -0.050811  4.016274  -2.869835  0.162045  -3.016647  -0.079281  0.084722  2.367436  -0.208182  0.239079  6.47089  -0.208182  0.239079  6.470891  -12.222868  25.883387  4.41083  159.00444  62.54382  -146.449377  -19.718514  -33.559276  116.058348  103.812706  19.711733  -27.17554  0.281645  -9.55256  15.069944  71.13423  55.00569  9.488383  -55.776961  40.742411  -85.586672  71.036235  16.38355  32.85557  -5.288226  -1.240538  0.650173  -3.9647  -0.936113  0.476917  
0.0  101.685394  0.0  0.803625  8.092253  -100.198852  16.53873  -18.787339  15.152099  -4.108106  3.778233  2.84922  5.777668  0.544077  4.267479  -5.298703  16.566733  8.766833  -5.12895  -0.051314  4.016421  -2.948711  0.161591  -3.04364  -0.073128  0.088261  2.368259  -0.191032  0.248141  6.473154  -0.191032  0.248141  6.473154  -12.236071  25.830973  4.372458  158.950784  62.575233  -146.498226  -19.721165  -33.595379  116.00754  103.70579  19.532387  -27.178985  0.270795  -9.577139  15.061906  71.18173  55.001211  9.550785  -55.787445  40.708282  -85.579309  70.969672  16.373799  32.784255  -5.268324  -1.21705  0.616054  -3.949873  -0.91818  0.451569  
0.0  101.685394  0.0  0.815117  8.097842  -100.180889  16.609956  -18.820072  15.083263  -4.1586  3.80876  2.920527  5.739682  0.55448  4.27069  -5.361409  16.577069  8.729477  -5.129121  -0.043012  4.001525  -2.914086  0.160436  -3.034938  -0.074855  0.087595  2.364469  -0.195827  0.246483  6.462788  -0.195827  0.246483  6.462789  -12.18625  25.828168  4.370905  158.944793  62.613938  -146.536314  -19.718582  -33.582818  115.997369  103.705047  19.504551  -27.116515  0.272618  -9.566462  15.080848  71.172172  54.997225  9.555083  -55.760405  40.688242  -85.565194  70.966111  16.339137  32.774503  -5.232958  -1.176243  0.585339  -3.923459  -0.887272  0.428953  
0.0  101.685394  0.0  0.821664  8.110976  -100.165765  16.66461  -18.860799  15.014566  -4.184283  3.834675  3.006328  5.690956  0.574311  4.268403  -5.332409  16.594939  8.746837  -5.135037  -0.057775  3.9907  -2.966568  0.145577  -3.052547  -0.067765  0.08893  2.363172  -0.176341  0.249431  6.459267  -0.176341  0.249431  6.459267  -12.199247  25.787249  4.36972  158.855059  62.649164  -146.578792  -19.715635  -33.589498  115.923744  103.56042  19.299902  -27.078689  0.258409  -9.60048  15.099013  71.243138  54.993296  9.637368  -55.768013  40.67548  -85.550999  70.934904  16.31492  32.74359  -5.24249  -1.152682  0.552329  -3.930697  -0.869326  0.404379  
0.0  101.685394  0.0  0.833615  8.116101  -100.166779  16.691946  -18.895077  14.967256  -4.220673  3.874038  3.08435  5.669125  0.584559  4.269046  -5.45581  16.635084  8.723334  -5.084002  -0.071864  3.960732  -2.914918  0.142799  -3.042951  -0.070841  0.087493  2.362959  -0.184881  0.245809  6.458676  -0.184881  0.245809  6.458676  -12.1552  25.792459  4.367416  158.876273  62.684619  -146.596673  -19.696889  -33.545645  115.905012  103.543352  19.250961  -26.970364  0.257078  -9.596561  15.104859  71.27099  54.991524  9.682774  -55.746617  40.674674  -85.535102  70.942874  16.283945  32.757063  -5.204464  -1.107805  0.513754  -3.902298  -0.835301  0.3759  
0.0  101.685394  0.0  0.832149  8.059523  -100.20107  16.73692  -18.952938  14.934838  -4.215072  3.905962  3.187715  5.638759  0.596881  4.271534  -5.557111  16.687904  8.714696  -5.000846  -0.104091  3.946354  -2.840015  0.134675  -3.047553  -0.056501  0.084941  2.375669  -0.145932  0.237467  6.493476  -0.145932  0.237467  6.493477  -12.193629  25.764555  4.317117  158.828369  62.721328  -146.631507  -19.678365  -33.534921  115.833379  103.522918  19.198559  -26.852972  0.255605  -9.631657  15.06586  71.443068  54.964281  9.848322  -55.784882  40.698947  -85.52526  70.925834  16.267732  32.757227  -5.189304  -1.08005  0.454524  -3.891062  -0.813967  0.331739  
0.0  101.685394  0.0  0.843697  8.079642  -100.203924  16.715537  -18.970446  14.887424  -4.227481  3.941404  3.277421  5.622149  0.607868  4.271433  -5.711387  16.770993  8.680531  -4.888385  -0.153213  3.933548  -2.810497  0.124397  -3.045777  -0.068821  0.081014  2.379227  -0.179943  0.227963  6.503167  -0.179943  0.227963  6.503166  -12.126587  25.796352  4.287882  158.824103  62.765823  -146.663168  -19.636796  -33.501749  115.787803  103.517649  19.159422  -26.751385  0.276584  -9.611856  15.038707  71.5272  54.951098  9.932071  -55.771912  40.702928  -85.513007  70.957289  16.244204  32.777255  -5.124112  -1.019661  0.394843  -3.842326  -0.76812  0.287598  
0.0  101.685394  0.0  0.856611  8.095093  -100.1985  16.674107  -18.971409  14.821469  -4.190551  3.970975  3.408214  5.625042  0.615898  4.270086  -6.006621  16.870453  8.559038  -4.777655  -0.200289  3.94197  -2.668962  0.127897  -3.032955  -0.06832  0.079632  2.385621  -0.178688  0.224156  6.520649  -0.178688  0.224156  6.520649  -12.143573  25.779406  4.24158  158.687065  62.809221  -146.730158  -19.604495  -33.521559  115.659165  103.526432  19.137852  -26.681641  0.292828  -9.640363  15.014748  71.778328  54.894464  10.136527  -55.847906  40.749928  -85.506694  70.984506  16.245784  32.786876  -5.108857  -0.978252  0.32342  -3.831033  -0.736454  0.234399  
0.0  101.685394  0.0  0.860701  8.106022  -100.182414  16.657582  -18.975549  14.754648  -4.18524  3.998578  3.498794  5.603314  0.617444  4.264838  -6.098275  16.928094  8.502824  -4.677582  -0.244979  3.956239  -2.670312  0.125888  -3.028968  -0.078897  0.074262  2.38329  -0.208104  0.21053  6.514253  -0.208104  0.21053  6.514254  -12.090921  25.813184  4.225647  158.643552  62.839471  -146.804841  -19.562541  -33.50225  115.609989  103.553817  19.138156  -26.636997  0.325059  -9.638509  15.023664  71.822013  54.890204  10.209674  -55.819158  40.74632  -85.501115  71.045378  16.242601  32.791666  -5.039529  -0.913321  0.268892  -3.779166  -0.687264  0.194149  
0.0  101.685394  0.0  0.869928  8.153231  -100.138555  16.586633  -18.955184  14.655755  -4.16449  4.035581  3.601015  5.59706  0.614089  4.266164  -6.445765  17.009291  8.29773  -4.509542  -0.280489  4.02394  -2.567576  0.140674  -3.020464  -0.094907  0.071008  2.377903  -0.252154  0.203202  6.499489  -0.252154  0.203202  6.499489  -12.104774  25.805697  4.191932  158.59666  62.840509  -146.865158  -19.529425  -33.508631  115.517648  103.493766  19.071387  -26.63525  0.392827  -9.659851  15.04452  72.22219  54.786771  10.50058  -55.902574  40.803361  -85.508229  71.174304  16.20099  32.882855  -4.989967  -0.85412  0.212041  -3.74211  -0.642372  0.152065  
0.0  101.685394  0.0  0.864728  8.136391  -100.117495  16.59599  -18.962946  14.587784  -4.138207  4.059818  3.687438  5.558208  0.60701  4.255332  -6.419724  17.00538  8.231868  -4.492469  -0.286928  4.078721  -2.580597  0.149115  -3.011728  -0.102717  0.065338  2.376509  -0.27404  0.188484  6.495676  -0.27404  0.188484  6.495676  -12.07095  25.826296  4.170386  158.537075  62.8461  -146.960812  -19.492503  -33.483727  115.489784  103.519011  19.114112  -26.609475  0.394275  -9.652369  15.038768  72.289155  54.748789  10.566455  -55.881943  40.811178  -85.516325  71.226566  16.198359  32.87396  -4.910806  -0.792787  0.156968  -3.682843  -0.595897  0.111362  
0.0  101.685394  0.0  0.875838  8.175327  -100.062326  16.544307  -18.937551  14.484962  -4.151683  4.091764  3.749671  5.567347  0.599266  4.276154  -6.605393  17.027283  8.039436  -4.461179  -0.273447  4.18163  -2.507659  0.168023  -3.006452  -0.114692  0.067062  2.372066  -0.306581  0.194345  6.483489  -0.306581  0.194345  6.483489  -12.141066  25.776665  4.130891  158.501749  62.827968  -147.025647  -19.472772  -33.458053  115.420955  103.394711  18.997197  -26.612538  0.425352  -9.694744  15.051293  72.64764  54.63541  10.824818  -55.990542  40.873422  -85.531318  71.29071  16.189122  32.891968  -4.872256  -0.753405  0.100454  -3.654015  -0.565897  0.069338  
0.0  101.685394  0.0  0.8681  8.13  -100.054466  16.57094  -18.964136  14.430469  -4.10202  4.128913  3.85386  5.514125  0.590588  4.256062  -6.470605  16.975203  7.988389  -4.490855  -0.251893  4.266427  -2.534693  0.185369  -2.996048  -0.119948  0.060878  2.372603  -0.321537  0.177978  6.484966  -0.321537  0.177978  6.484966  -12.112314  25.790882  4.136206  158.455245  62.824437  -147.098848  -19.454624  -33.380216  115.423387  103.393624  19.024387  -26.540651  0.421348  -9.681276  15.057329  72.733072  54.585144  10.899776  -55.969145  40.865483  -85.540241  71.329353  16.174609  32.87804  -4.786986  -0.696381  0.052667  -3.590135  -0.522737  0.034048  
0.0  101.685394  0.0  0.87582  8.161749  -100.024918  16.493228  -18.963812  14.335319  -4.087712  4.162878  3.953324  5.509299  0.602181  4.26853  -6.47309  16.948927  7.877857  -4.464888  -0.224395  4.378313  -2.595935  0.204826  -2.997195  -0.134954  0.06244  2.373135  -0.362352  0.183717  6.486371  -0.362352  0.183717  6.486371  -12.187776  25.721814  4.105734  158.44233  62.792359  -147.135692  -19.451184  -33.303076  115.379008  103.283477  18.94809  -26.466061  0.498268  -9.722586  15.09286  73.084718  54.480512  11.154557  -56.057447  40.911609  -85.539293  71.40651  16.133687  32.926191  -4.736836  -0.6579  -0.001297  -3.55259  -0.49345  -0.006073  
0.0  101.685394  0.0  0.867172  8.094672  -100.028335  16.535446  -19.0098  14.274563  -4.058518  4.193809  4.087597  5.462655  0.621736  4.249734  -6.254517  16.877487  7.851894  -4.501563  -0.192702  4.466371  -2.652157  0.217699  -2.984261  -0.144598  0.054718  2.375991  -0.389435  0.163594  6.494192  -0.389435  0.163594  6.494192  -12.127042  25.733925  4.115666  158.386917  62.769791  -147.205487  -19.443288  -33.209542  115.401438  103.255461  18.946922  -26.357733  0.514335  -9.691428  15.112354  73.192777  54.419215  11.235488  -56.040247  40.897592  -85.552042  71.429178  16.107251  32.897185  -4.628694  -0.601693  -0.047829  -3.471536  -0.450938  -0.040431  
0.0  101.685394  0.0  0.86948  8.05105  -100.015857  16.524093  -19.039907  14.168198  -4.108451  4.227131  4.192886  5.502271  0.648612  4.287644  -5.980631  16.813512  7.843634  -4.486218  -0.18657  4.576547  -2.812551  0.234822  -3.000604  -0.155183  0.052887  2.378976  -0.418507  0.159653  6.502335  -0.418507  0.159653  6.502335  -12.140803  25.676073  4.103671  158.212688  62.741732  -147.298255  -19.464487  -33.188328  115.311125  103.16181  18.911547  -26.254361  0.609141  -9.706943  15.160694  73.533068  54.297169  11.468651  -56.184397  40.981267  -85.561882  71.450428  16.080244  32.871268  -4.561785  -0.564051  -0.104996  -3.421408  -0.422282  -0.082962  
0.0  101.685394  0.0  0.859099  7.960627  -100.023174  16.572433  -19.099978  14.085954  -4.125494  4.271282  4.337798  5.484946  0.67496  4.295364  -5.745725  16.730936  7.8248  -4.539722  -0.145756  4.654892  -2.8579  0.246345  -2.986545  -0.166632  0.043933  2.381979  -0.450641  0.136353  6.510572  -0.450641  0.136353  6.510572  -12.069121  25.68618  4.120839  158.14897  62.705323  -147.356307  -19.452916  -33.141145  115.321502  103.121299  18.880232  -26.148804  0.613493  -9.661386  15.182629  73.666399  54.21942  11.541976  -56.153064  40.965637  -85.563369  71.470832  16.063633  32.829048  -4.43941  -0.508449  -0.152515  -3.329663  -0.380252  -0.118086  
